# xmcd
#
# Track frame offsets: 
#        150
#        12079
#        28680
#        42986
#        63938
#        83703
#
# Disc length: 1318 seconds
#
# Revision: 0
# Processed by: cddbd v1.5.2PL0 Copyright (c) Steve Scherf et al.
# Submitted via: ExactAudioCopyFreeDBPlugin 1.0
#
DISCID=3e052406
DTITLE=林宝 - 上海谣
DYEAR=2018
DGENRE=
TTITLE0=四季歌
TTITLE1=上海谣
TTITLE2=得不到的爱情
TTITLE3=落雨
TTITLE4=上海白玉兰
TTITLE5=天涯歌女
EXTD=
EXTT0=
EXTT1=
EXTT2=
EXTT3=
EXTT4=
EXTT5=
PLAYORDER=
